<svg xmlns="http://www.w3.org/2000/svg" width="24" height="24"><path d="M15.812 4.819a.85.85 0 01.028-1.207L19.309.247A.868.868 0 0119.912 0c.219 0 .438.085.604.257l-4.704 4.562zm-5.705 8.572a.355.355 0 00.494.509l.583-.567-.493-.509-.584.567zm4.924-6.552l-1.994 1.933c-1.072 1.039-1.619 2.046-2.124 3.451l.881.909c1.419-.461 2.442-.976 3.514-2.016l1.994-1.934-2.271-2.343zM20.847.881L15.71 5.863l2.586 2.671 5.138-4.98c.377-.366.566-.851.566-1.337C24 .593 22.032-.269 20.847.881zM9 13H5v1h4v-1zm9-1.35v1.893C18 17.65 12 16 12 16s1.518 6-2.638 6H2V2h12.629l2.062-2H0v24h10.189C13.352 24 20 16.777 20 14.386V9.699l-2 1.951z"/></svg>