<svg width="24" height="24" xmlns="http://www.w3.org/2000/svg" fill-rule="evenodd" clip-rule="evenodd"><path d="M24 24H0V0h24v24zM22 6H2v16h20V6zM7 21H3v-1h4v1zm14 0H10V7h11v14zM20 8h-9v12h9V8zM9 19H3v-1h6v1zm8.633-3.615a.282.282 0 01-.357-.179s-1.047-.352-2.291.062l.818 1.269a.227.227 0 01-.116.342l-.555.185-.117.019a.37.37 0 01-.278-.125l-1.123-1.238c-.611.192-1.302-.031-1.534-.606a1.118 1.118 0 01-.08-.415c0-.41.229-.829.727-1.073 2.491-1.223 2.889-2.587 2.889-2.587a.284.284 0 01.269-.372c.118 0 .228.075.267.193l1.66 4.167a.284.284 0 01-.179.358zM9 17H3v-1h6v1zm-2-2.902H3v-1h4v1zm11.814-.144l-.429-.183a1.88 1.88 0 00.01-1.44 1.874 1.874 0 00-1.009-1.026l.181-.431a2.349 2.349 0 011.247 3.08zm-.744-.315l-.419-.178c.108-.256.119-.552.005-.83a1.071 1.071 0 00-.581-.59l.178-.421c.362.153.666.445.825.84.16.394.146.815-.008 1.179zM9 12H3v-1h6v1zm0-1.903H3v-1h6v1zM9 8H3V7h6v1zm13-6H2v2h20V2z"/></svg>