<svg xmlns="http://www.w3.org/2000/svg" width="24" height="24"><path d="M10.028 15H4.615L0 4h15l-.564 2H3.008l2.938 7h2.678l1.404 2zm7.544-5.439L19.328 4h1.929L22 2h-4.195l-2.489 7.979 2.256-.418zM7.5 16a1.5 1.5 0 10.001 3.001A1.5 1.5 0 007.5 16zm14.011-3.454c1.44 2.018 1.041 3.439 2.489 5.471L18.415 22c-3.015-2.246-5.617-2.966-6.458-3.248-.801-.27-1.317-.783-1.14-1.428.181-.652.862-.846 1.424-.821.848.039 1.536.293 1.536.293l-3.896-5.461a1.083 1.083 0 111.765-1.259l2.639 3.693a.397.397 0 00.646-.46l-.65-.912 1.047-.261a.69.69 0 01.726.27l.532.746a.396.396 0 10.646-.461l-.614-.861 1.027-.23c.27-.058.548.05.708.274l.452.634a.396.396 0 10.646-.46l-.507-.71.303-.054c1.052-.186 1.623.363 2.264 1.262zM9.505 8.949c.676-.482 1.55-.498 2.201.002A1.893 1.893 0 108.79 11.03c-.261-.778.039-1.599.715-2.081z"/></svg>